<svg width="24" height="23" viewBox="0 0 24 23" fill="none" xmlns="http://www.w3.org/2000/svg">
	<path d="M2.09418 0C1.48202 -2.50755e-06 0.930447 0.148709 0.54421 0.51151C0.157972 0.874309 -0.00386059 1.39575 6.97972e-05 1.96852V18.8482V18.856C-0.00230353 19.4288 0.15676 19.9505 0.54421 20.313C0.933476 20.6772 1.49164 20.8323 2.11067 20.8323H11.3693C12.7086 21.9147 14.4477 22.5683 16.349 22.5683C20.5682 22.5683 23.9999 19.3424 23.9999 15.3762C23.9999 13.5938 23.3074 11.9621 22.1614 10.7029C22.1614 7.78383 22.1614 4.86384 22.1614 1.94532C22.1575 1.38004 21.9946 0.87 21.609 0.511556C21.2234 0.15311 20.6678 4.34076e-05 20.059 4.59152e-05L2.09418 0ZM2.09418 0.992012H10.5448V9.92012H1.05537V1.96852C1.04401 1.68013 1.14035 1.36871 1.29446 1.21678C1.5477 1.01902 1.82112 0.994297 2.09418 0.992012ZM11.6001 0.992012H20.059C20.4891 0.99201 20.7274 1.08696 20.867 1.21677C21.0066 1.34658 21.1033 1.5573 21.1061 1.95303V9.7496C19.799 8.76936 18.1467 8.17634 16.349 8.17634C14.5545 8.17634 12.9061 8.76477 11.6001 9.74185V0.992012ZM16.283 2.96828C16.0267 2.9986 15.8153 3.22919 15.8213 3.47203V4.96005C15.2773 4.96004 14.72 4.96005 14.1807 4.96005C13.9044 4.97424 13.6667 5.22345 13.6818 5.48317C13.697 5.7429 13.9621 5.96629 14.2384 5.95206H15.8213V7.44008C15.8174 7.70212 16.0702 7.94314 16.349 7.94314C16.6278 7.94314 16.8806 7.70212 16.8766 7.44008V5.95206H18.4596C18.7384 5.95575 18.9948 5.71813 18.9948 5.45605C18.9948 5.19398 18.7384 4.95634 18.4596 4.96005H16.8766V3.47203C16.8849 3.10461 16.5947 2.96757 16.283 2.96828ZM3.62767 4.96006C3.35137 4.97426 3.11371 5.22346 3.12882 5.48319C3.14393 5.74291 3.40909 5.96631 3.68538 5.95207H7.90659C8.18535 5.95576 8.44175 5.71814 8.44175 5.45607C8.44175 5.194 8.18535 4.95636 7.90659 4.96006C6.48226 4.96006 5.0476 4.96006 3.62767 4.96006ZM16.349 9.1761C19.9979 9.1761 22.9529 11.9461 22.9529 15.3762C22.9529 18.8063 19.9979 21.5685 16.349 21.5685C12.7001 21.5685 9.75336 18.8063 9.75336 15.3762C9.75336 11.9461 12.7001 9.1761 16.349 9.1761ZM1.05537 10.9121H10.3635C9.32652 12.1409 8.70631 13.6902 8.70631 15.3762C8.70631 17.0622 9.32652 18.6129 10.3635 19.8402H2.11067C1.66616 19.8402 1.43324 19.7376 1.29446 19.6077C1.15569 19.4779 1.0526 19.2642 1.05537 18.8559V10.9121ZM6.909 13.6169L5.79598 14.6632L4.67473 13.6169C4.39621 13.4169 4.16639 13.439 3.93558 13.5988C3.68977 13.8239 3.79809 14.1129 3.92447 14.3221L5.03748 15.3761L3.92447 16.4223C3.72806 16.607 3.72806 16.9429 3.92447 17.1276C4.12089 17.3122 4.47831 17.3122 4.67473 17.1276L5.79598 16.0736L6.909 17.1276C7.10541 17.3122 7.46283 17.3122 7.65925 17.1276C7.85566 16.9429 7.85567 16.607 7.65925 16.4223L6.53799 15.3761L7.65925 14.3221C7.89131 14.0612 7.84784 13.8369 7.65722 13.5947C7.38939 13.4131 7.12656 13.4893 6.909 13.6168L6.909 13.6169ZM14.1807 13.8882C13.9044 13.9025 13.6667 14.1516 13.6818 14.4113C13.697 14.671 13.9621 14.8944 14.2384 14.8802H18.4596C18.7384 14.8839 18.9948 14.6462 18.9948 14.3842C18.9948 14.1221 18.7384 13.8845 18.4596 13.8882C17.0353 13.8882 15.6006 13.8882 14.1807 13.8882ZM14.1972 15.8722C13.9208 15.8842 13.6812 16.1317 13.6941 16.3914C13.7071 16.6512 13.9703 16.8764 14.2466 16.8642H18.4678C18.7466 16.8679 19.003 16.6303 19.003 16.3682C19.003 16.1061 18.7466 15.8685 18.4678 15.8722C17.0459 15.8722 15.6154 15.8722 14.1972 15.8722Z" fill="#364556"/>
</svg>