<svg width="72" height="26" viewBox="0 0 72 26" fill="none" xmlns="http://www.w3.org/2000/svg">
<g filter="url(#filter0_d)">
<path d="M67.7962 0.971863H4.62207V17.9258H67.7962V0.971863Z" fill="#364556"/>
<path d="M19.4217 5.62262H17.4185V13.2759H19.4217C20.7054 13.2759 21.5125 12.7022 21.5125 10.9809V7.91764C21.5223 6.09913 20.6471 5.62262 19.4217 5.62262ZM20.1025 10.8837C20.1025 11.6325 19.8302 11.9631 19.3342 11.9631H18.8285V6.92573H19.3439C19.801 6.92573 20.0927 7.15912 20.0927 8.00517V10.8837H20.1025Z" fill="white"/>
<path d="M25.4899 9.93023C26.0928 9.64821 26.5013 9.11335 26.5013 7.97557V7.80052C26.5013 6.44879 25.947 5.62219 24.5661 5.62219H22.3975V13.2755H23.7881V10.222H24.1965L25.1593 13.2755H26.6374L25.4899 9.93023ZM25.062 8.02419C25.062 8.67574 24.8189 9.00638 24.3424 9.00638H23.7881V6.9253H24.3424C24.8675 6.9253 25.062 7.24621 25.062 7.91722V8.02419Z" fill="white"/>
<path d="M28.7284 13.2755V5.62219H27.3184V13.2755H28.7284Z" fill="white"/>
<path d="M34.0474 5.62219H32.6373L31.8399 9.74546L31.7038 10.679L31.5968 9.74546L30.7605 5.62219H29.3018L31.1008 13.2755H32.297L34.0474 5.62219Z" fill="white"/>
<path d="M38.112 13.2755V11.9724H35.9823V10.0664H37.7814V8.77299H35.9823V6.9253H38.112V5.62219H34.5723V13.2755H38.112Z" fill="white"/>
<path d="M42.6352 7.57675C42.6352 6.14722 41.9253 5.55402 40.7486 5.55402C39.6011 5.55402 38.8037 6.24447 38.8037 7.78097H40.1457C40.1652 6.96409 40.3986 6.7696 40.7389 6.7696C41.1182 6.7696 41.2932 6.98354 41.2932 7.56703C41.2932 8.05326 41.1376 8.40335 40.8945 8.78261L38.8621 12.0307V13.2657H42.5866V12.0404H40.3986L41.9351 9.58976C42.3629 8.88958 42.6352 8.35472 42.6352 7.57675Z" fill="white"/>
<path d="M49.0525 9.93023C49.6554 9.64821 50.0638 9.11335 50.0638 7.97557V7.80052C50.0638 6.44879 49.5095 5.62219 48.1383 5.62219H45.9697V13.2755H47.3604V10.222H47.7688L48.7218 13.2755H50.2L49.0525 9.93023ZM48.6246 8.02419C48.6246 8.67574 48.3912 9.00638 47.9049 9.00638H47.3506V6.9253H47.9049C48.4301 6.9253 48.6246 7.24621 48.6246 7.91722V8.02419Z" fill="white"/>
<path d="M54.9853 11.0291V5.62219H53.5752V10.9805C53.5752 11.739 53.4294 12.0308 52.8945 12.0308C52.3597 12.0308 52.2138 11.739 52.2138 10.9805V5.62219H50.8037V11.0291C50.8037 12.692 51.6109 13.3436 52.8945 13.3436C54.1879 13.3436 54.9853 12.6823 54.9853 11.0291Z" fill="white"/>
<path d="M43.6748 12.0405H44.9098V13.2755H43.6748V12.0405Z" fill="white"/>
</g>
<defs>
<filter id="filter0_d" x="0.62207" y="0.971863" width="71.1741" height="24.9539" filterUnits="userSpaceOnUse" color-interpolation-filters="sRGB">
<feFlood flood-opacity="0" result="BackgroundImageFix"/>
<feColorMatrix in="SourceAlpha" type="matrix" values="0 0 0 0 0 0 0 0 0 0 0 0 0 0 0 0 0 0 127 0"/>
<feOffset dy="4"/>
<feGaussianBlur stdDeviation="2"/>
<feColorMatrix type="matrix" values="0 0 0 0 0 0 0 0 0 0 0 0 0 0 0 0 0 0 0.25 0"/>
<feBlend mode="normal" in2="BackgroundImageFix" result="effect1_dropShadow"/>
<feBlend mode="normal" in="SourceGraphic" in2="effect1_dropShadow" result="shape"/>
</filter>
</defs>
</svg>
