<svg width="28" height="28" viewBox="0 0 28 28" fill="none" xmlns="http://www.w3.org/2000/svg">
<g filter="url(#filter0_d)">
<path d="M23.9506 5.79192C23.9052 4.76252 23.7387 4.05482 23.5002 3.44159C23.2542 2.79066 22.8758 2.20788 22.3799 1.72341C21.8955 1.23141 21.3088 0.849096 20.6654 0.606937C20.0487 0.368474 19.3447 0.202008 18.3153 0.156622C17.2782 0.107392 16.9489 0.0960083 14.3186 0.0960083C11.6883 0.0960083 11.359 0.107392 10.3258 0.152778C9.2964 0.198165 8.58869 0.364778 7.97561 0.603093C7.32453 0.849096 6.74175 1.22756 6.25729 1.72341C5.76528 2.20788 5.38312 2.7945 5.14081 3.43789C4.90235 4.05482 4.73588 4.75868 4.6905 5.78807C4.64127 6.82516 4.62988 7.1544 4.62988 9.78473C4.62988 12.4151 4.64127 12.7443 4.68665 13.7775C4.73204 14.8069 4.89865 15.5146 5.13712 16.1279C5.38312 16.7788 5.76528 17.3616 6.25729 17.8461C6.74175 18.3381 7.32837 18.7204 7.97177 18.9625C8.58869 19.201 9.29255 19.3675 10.3221 19.4128C11.3552 19.4584 11.6846 19.4696 14.3149 19.4696C16.9452 19.4696 17.2745 19.4584 18.3077 19.4128C19.3371 19.3675 20.0448 19.201 20.6579 18.9625C21.9599 18.4591 22.9893 17.4297 23.4927 16.1279C23.731 15.511 23.8976 14.8069 23.943 13.7775C23.9884 12.7443 23.9998 12.4151 23.9998 9.78473C23.9998 7.1544 23.9959 6.82516 23.9506 5.79192ZM22.2059 13.7019C22.1642 14.648 22.0053 15.1589 21.8728 15.4996C21.5473 16.3436 20.8774 17.0134 20.0334 17.339C19.6928 17.4714 19.1782 17.6304 18.2357 17.6719C17.2139 17.7174 16.9074 17.7287 14.3225 17.7287C11.7375 17.7287 11.4272 17.7174 10.409 17.6719C9.46286 17.6304 8.95193 17.4714 8.61131 17.339C8.19131 17.1837 7.809 16.9377 7.49868 16.616C7.17699 16.3019 6.93098 15.9234 6.77575 15.5034C6.64329 15.1628 6.48437 14.648 6.44282 13.7057C6.39729 12.6838 6.38605 12.3772 6.38605 9.79227C6.38605 7.20732 6.39729 6.89701 6.44282 5.879C6.48437 4.93283 6.64329 4.4219 6.77575 4.08128C6.93098 3.66113 7.17699 3.27896 7.50253 2.9685C7.81654 2.64681 8.195 2.40081 8.61516 2.24572C8.95578 2.11326 9.47055 1.95433 10.4129 1.91264C11.4347 1.86726 11.7413 1.85587 14.3261 1.85587C16.9149 1.85587 17.2214 1.86726 18.2396 1.91264C19.1857 1.95433 19.6967 2.11326 20.0373 2.24572C20.4573 2.40081 20.8396 2.64681 21.1499 2.9685C21.4716 3.28266 21.7176 3.66113 21.8728 4.08128C22.0053 4.4219 22.1642 4.93653 22.2059 5.879C22.2513 6.90085 22.2627 7.20732 22.2627 9.79227C22.2627 12.3772 22.2513 12.68 22.2059 13.7019Z" fill="#364556"/>
<path d="M14.3191 4.8078C11.5715 4.8078 9.34229 7.0369 9.34229 9.78463C9.34229 12.5323 11.5715 14.7615 14.3191 14.7615C17.0668 14.7615 19.2959 12.5323 19.2959 9.78463C19.2959 7.0369 17.0668 4.8078 14.3191 4.8078ZM14.3191 13.013C12.5366 13.013 11.0908 11.5673 11.0908 9.78463C11.0908 8.00199 12.5366 6.55628 14.3191 6.55628C16.1017 6.55628 17.5475 8.00199 17.5475 9.78463C17.5475 11.5673 16.1017 13.013 14.3191 13.013Z" fill="#364556"/>
<path d="M20.6535 4.61114C20.6535 5.25276 20.1332 5.773 19.4915 5.773C18.8498 5.773 18.3296 5.25276 18.3296 4.61114C18.3296 3.96937 18.8498 3.44928 19.4915 3.44928C20.1332 3.44928 20.6535 3.96937 20.6535 4.61114Z" fill="#364556"/>
</g>
<defs>
<filter id="filter0_d" x="0.629883" y="0.0960083" width="27.3699" height="27.3736" filterUnits="userSpaceOnUse" color-interpolation-filters="sRGB">
<feFlood flood-opacity="0" result="BackgroundImageFix"/>
<feColorMatrix in="SourceAlpha" type="matrix" values="0 0 0 0 0 0 0 0 0 0 0 0 0 0 0 0 0 0 127 0"/>
<feOffset dy="4"/>
<feGaussianBlur stdDeviation="2"/>
<feColorMatrix type="matrix" values="0 0 0 0 0 0 0 0 0 0 0 0 0 0 0 0 0 0 0.25 0"/>
<feBlend mode="normal" in2="BackgroundImageFix" result="effect1_dropShadow"/>
<feBlend mode="normal" in="SourceGraphic" in2="effect1_dropShadow" result="shape"/>
</filter>
</defs>
</svg>
